<mxfile host="app.diagrams.net" modified="2024-01-13T14:03:37.959Z" agent="Mozilla/5.0 (Windows NT 10.0; Win64; x64) AppleWebKit/537.36 (KHTML, like Gecko) Chrome/120.0.0.0 Safari/537.36" etag="_it2AdBTGefvCYuxCVmO" version="22.1.17" type="device">
  <diagram name="Страница — 1" id="awgZQZ2jNbD-N3x762fQ">
    <mxGraphModel dx="1500" dy="757" grid="1" gridSize="10" guides="1" tooltips="1" connect="1" arrows="1" fold="1" page="1" pageScale="1" pageWidth="1169" pageHeight="827" math="0" shadow="0">
      <root>
        <mxCell id="0" />
        <mxCell id="1" parent="0" />
        <mxCell id="97ZNiib0oYw3oGOegRlO-22" value="" style="rounded=0;whiteSpace=wrap;html=1;fillColor=none;dashed=1;" vertex="1" parent="1">
          <mxGeometry x="165" y="40" width="265" height="360" as="geometry" />
        </mxCell>
        <mxCell id="97ZNiib0oYw3oGOegRlO-28" value="" style="rounded=0;whiteSpace=wrap;html=1;fillColor=none;dashed=1;" vertex="1" parent="1">
          <mxGeometry x="452" y="123" width="408" height="447" as="geometry" />
        </mxCell>
        <mxCell id="49Ez8LQvkiXUo5bIbuk2-1" value="PHASE" style="rounded=0;whiteSpace=wrap;html=1;strokeWidth=2;shadow=1;" parent="1" vertex="1">
          <mxGeometry x="270" y="56.5" width="50" height="82" as="geometry" />
        </mxCell>
        <mxCell id="49Ez8LQvkiXUo5bIbuk2-2" value="LP &lt;br&gt;filter" style="rounded=0;whiteSpace=wrap;html=1;strokeWidth=2;" parent="1" vertex="1">
          <mxGeometry x="100" y="50" width="40" height="60" as="geometry" />
        </mxCell>
        <mxCell id="49Ez8LQvkiXUo5bIbuk2-4" value="PHASE_INC" style="text;html=1;align=center;verticalAlign=middle;resizable=0;points=[];autosize=1;strokeColor=none;fillColor=none;" parent="1" vertex="1">
          <mxGeometry x="10" y="40" width="90" height="30" as="geometry" />
        </mxCell>
        <mxCell id="49Ez8LQvkiXUo5bIbuk2-9" style="edgeStyle=orthogonalEdgeStyle;rounded=0;orthogonalLoop=1;jettySize=auto;html=1;exitX=1;exitY=0.5;exitDx=0;exitDy=0;entryX=0;entryY=0.5;entryDx=0;entryDy=0;" parent="1" source="49Ez8LQvkiXUo5bIbuk2-7" target="49Ez8LQvkiXUo5bIbuk2-1" edge="1">
          <mxGeometry relative="1" as="geometry" />
        </mxCell>
        <mxCell id="49Ez8LQvkiXUo5bIbuk2-7" value="" style="shape=orEllipse;perimeter=ellipsePerimeter;whiteSpace=wrap;html=1;backgroundOutline=1;strokeWidth=2;shadow=0;" parent="1" vertex="1">
          <mxGeometry x="200" y="72" width="50" height="51" as="geometry" />
        </mxCell>
        <mxCell id="49Ez8LQvkiXUo5bIbuk2-12" value="SIN&lt;br&gt;&lt;br&gt;table" style="rounded=0;whiteSpace=wrap;html=1;strokeWidth=2;perimeterSpacing=2;shadow=1;" parent="1" vertex="1">
          <mxGeometry x="360" y="60" width="50" height="82" as="geometry" />
        </mxCell>
        <mxCell id="49Ez8LQvkiXUo5bIbuk2-13" value="COS&lt;br&gt;&lt;br&gt;table" style="rounded=0;whiteSpace=wrap;html=1;strokeWidth=2;shadow=1;" parent="1" vertex="1">
          <mxGeometry x="360" y="300" width="50" height="82" as="geometry" />
        </mxCell>
        <mxCell id="49Ez8LQvkiXUo5bIbuk2-15" value="" style="edgeStyle=elbowEdgeStyle;elbow=horizontal;endArrow=classic;html=1;curved=0;rounded=0;endSize=8;startSize=8;entryX=0;entryY=0.5;entryDx=0;entryDy=0;exitX=1;exitY=0.5;exitDx=0;exitDy=0;" parent="1" source="49Ez8LQvkiXUo5bIbuk2-1" edge="1">
          <mxGeometry width="50" height="50" relative="1" as="geometry">
            <mxPoint x="280" y="257" as="sourcePoint" />
            <mxPoint x="360" y="98" as="targetPoint" />
          </mxGeometry>
        </mxCell>
        <mxCell id="49Ez8LQvkiXUo5bIbuk2-16" value="" style="edgeStyle=elbowEdgeStyle;elbow=horizontal;endArrow=classic;html=1;curved=0;rounded=0;endSize=8;startSize=8;entryX=0;entryY=0.5;entryDx=0;entryDy=0;exitX=1;exitY=0.5;exitDx=0;exitDy=0;" parent="1" source="49Ez8LQvkiXUo5bIbuk2-1" target="49Ez8LQvkiXUo5bIbuk2-13" edge="1">
          <mxGeometry width="50" height="50" relative="1" as="geometry">
            <mxPoint x="230" y="320" as="sourcePoint" />
            <mxPoint x="280" y="270" as="targetPoint" />
          </mxGeometry>
        </mxCell>
        <mxCell id="49Ez8LQvkiXUo5bIbuk2-17" value="" style="shape=sumEllipse;perimeter=ellipsePerimeter;whiteSpace=wrap;html=1;backgroundOutline=1;strokeWidth=2;" parent="1" vertex="1">
          <mxGeometry x="470" y="215" width="50" height="50" as="geometry" />
        </mxCell>
        <mxCell id="49Ez8LQvkiXUo5bIbuk2-18" value="" style="shape=sumEllipse;perimeter=ellipsePerimeter;whiteSpace=wrap;html=1;backgroundOutline=1;strokeWidth=2;" parent="1" vertex="1">
          <mxGeometry x="470" y="374" width="50" height="50" as="geometry" />
        </mxCell>
        <mxCell id="49Ez8LQvkiXUo5bIbuk2-21" value="" style="endArrow=classic;html=1;rounded=0;entryX=0;entryY=0;entryDx=0;entryDy=0;exitX=1;exitY=0.5;exitDx=0;exitDy=0;" parent="1" source="49Ez8LQvkiXUo5bIbuk2-12" target="49Ez8LQvkiXUo5bIbuk2-17" edge="1">
          <mxGeometry width="50" height="50" relative="1" as="geometry">
            <mxPoint x="440" y="123" as="sourcePoint" />
            <mxPoint x="508.78679656440363" y="151.78679656440363" as="targetPoint" />
          </mxGeometry>
        </mxCell>
        <mxCell id="49Ez8LQvkiXUo5bIbuk2-22" value="" style="endArrow=classic;html=1;rounded=0;entryX=0;entryY=0;entryDx=0;entryDy=0;exitX=1;exitY=0.5;exitDx=0;exitDy=0;" parent="1" source="49Ez8LQvkiXUo5bIbuk2-13" target="49Ez8LQvkiXUo5bIbuk2-18" edge="1">
          <mxGeometry width="50" height="50" relative="1" as="geometry">
            <mxPoint x="440" y="390" as="sourcePoint" />
            <mxPoint x="495" y="424" as="targetPoint" />
          </mxGeometry>
        </mxCell>
        <mxCell id="49Ez8LQvkiXUo5bIbuk2-23" value="ADC&lt;br&gt;sample" style="rounded=0;whiteSpace=wrap;html=1;strokeWidth=2;" parent="1" vertex="1">
          <mxGeometry x="360" y="460" width="50" height="82" as="geometry" />
        </mxCell>
        <mxCell id="49Ez8LQvkiXUo5bIbuk2-27" value="" style="shape=flexArrow;endArrow=classic;html=1;rounded=0;entryX=0;entryY=0.5;entryDx=0;entryDy=0;" parent="1" target="49Ez8LQvkiXUo5bIbuk2-23" edge="1">
          <mxGeometry width="50" height="50" relative="1" as="geometry">
            <mxPoint x="260" y="500" as="sourcePoint" />
            <mxPoint x="370" y="524" as="targetPoint" />
          </mxGeometry>
        </mxCell>
        <mxCell id="49Ez8LQvkiXUo5bIbuk2-31" value="" style="endArrow=classic;html=1;rounded=0;entryX=0;entryY=1;entryDx=0;entryDy=0;exitX=1;exitY=0.5;exitDx=0;exitDy=0;" parent="1" source="49Ez8LQvkiXUo5bIbuk2-23" target="49Ez8LQvkiXUo5bIbuk2-17" edge="1">
          <mxGeometry width="50" height="50" relative="1" as="geometry">
            <mxPoint x="440" y="460" as="sourcePoint" />
            <mxPoint x="370" y="340" as="targetPoint" />
          </mxGeometry>
        </mxCell>
        <mxCell id="49Ez8LQvkiXUo5bIbuk2-32" value="" style="endArrow=classic;html=1;rounded=0;entryX=0;entryY=1;entryDx=0;entryDy=0;exitX=1;exitY=0.5;exitDx=0;exitDy=0;" parent="1" source="49Ez8LQvkiXUo5bIbuk2-23" target="49Ez8LQvkiXUo5bIbuk2-18" edge="1">
          <mxGeometry width="50" height="50" relative="1" as="geometry">
            <mxPoint x="440" y="514" as="sourcePoint" />
            <mxPoint x="490" y="464" as="targetPoint" />
          </mxGeometry>
        </mxCell>
        <mxCell id="49Ez8LQvkiXUo5bIbuk2-43" value="" style="endArrow=classic;html=1;rounded=0;exitX=1;exitY=0.5;exitDx=0;exitDy=0;entryX=0;entryY=0.5;entryDx=0;entryDy=0;" parent="1" source="49Ez8LQvkiXUo5bIbuk2-17" target="49Ez8LQvkiXUo5bIbuk2-93" edge="1">
          <mxGeometry width="50" height="50" relative="1" as="geometry">
            <mxPoint x="580" y="170" as="sourcePoint" />
            <mxPoint x="560" y="240" as="targetPoint" />
          </mxGeometry>
        </mxCell>
        <mxCell id="49Ez8LQvkiXUo5bIbuk2-56" value="" style="endArrow=classic;html=1;rounded=0;exitX=1;exitY=0.5;exitDx=0;exitDy=0;entryX=0;entryY=0.5;entryDx=0;entryDy=0;" parent="1" source="49Ez8LQvkiXUo5bIbuk2-18" target="49Ez8LQvkiXUo5bIbuk2-92" edge="1">
          <mxGeometry width="50" height="50" relative="1" as="geometry">
            <mxPoint x="560" y="434" as="sourcePoint" />
            <mxPoint x="560" y="399" as="targetPoint" />
          </mxGeometry>
        </mxCell>
        <mxCell id="49Ez8LQvkiXUo5bIbuk2-59" value="DAC&lt;br&gt;sample" style="rounded=0;whiteSpace=wrap;html=1;strokeWidth=2;" parent="1" vertex="1">
          <mxGeometry x="880" y="60" width="50" height="82" as="geometry" />
        </mxCell>
        <mxCell id="49Ez8LQvkiXUo5bIbuk2-60" value="" style="endArrow=classic;html=1;rounded=0;entryX=0;entryY=0.5;entryDx=0;entryDy=0;exitX=1;exitY=0.5;exitDx=0;exitDy=0;" parent="1" source="49Ez8LQvkiXUo5bIbuk2-12" target="49Ez8LQvkiXUo5bIbuk2-59" edge="1">
          <mxGeometry width="50" height="50" relative="1" as="geometry">
            <mxPoint x="461" y="68" as="sourcePoint" />
            <mxPoint x="560" y="134" as="targetPoint" />
          </mxGeometry>
        </mxCell>
        <mxCell id="49Ez8LQvkiXUo5bIbuk2-61" value="" style="shape=flexArrow;endArrow=classic;html=1;rounded=0;entryX=0;entryY=0.5;entryDx=0;entryDy=0;" parent="1" edge="1">
          <mxGeometry width="50" height="50" relative="1" as="geometry">
            <mxPoint x="930" y="100.5" as="sourcePoint" />
            <mxPoint x="1050" y="100.5" as="targetPoint" />
          </mxGeometry>
        </mxCell>
        <mxCell id="49Ez8LQvkiXUo5bIbuk2-62" value="" style="endArrow=classic;html=1;rounded=0;entryX=0;entryY=0;entryDx=0;entryDy=0;exitX=1;exitY=0.5;exitDx=0;exitDy=0;" parent="1" source="49Ez8LQvkiXUo5bIbuk2-2" target="49Ez8LQvkiXUo5bIbuk2-7" edge="1">
          <mxGeometry width="50" height="50" relative="1" as="geometry">
            <mxPoint x="140" y="37.5" as="sourcePoint" />
            <mxPoint x="190" y="-12.5" as="targetPoint" />
          </mxGeometry>
        </mxCell>
        <mxCell id="49Ez8LQvkiXUo5bIbuk2-63" value="" style="endArrow=none;html=1;rounded=0;" parent="1" edge="1">
          <mxGeometry width="50" height="50" relative="1" as="geometry">
            <mxPoint x="180" y="158.5" as="sourcePoint" />
            <mxPoint x="340" y="158.5" as="targetPoint" />
          </mxGeometry>
        </mxCell>
        <mxCell id="49Ez8LQvkiXUo5bIbuk2-64" value="" style="endArrow=none;html=1;rounded=0;" parent="1" edge="1">
          <mxGeometry width="50" height="50" relative="1" as="geometry">
            <mxPoint x="180" y="158.5" as="sourcePoint" />
            <mxPoint x="180" y="138.5" as="targetPoint" />
          </mxGeometry>
        </mxCell>
        <mxCell id="49Ez8LQvkiXUo5bIbuk2-65" value="" style="endArrow=classic;html=1;rounded=0;entryX=0;entryY=1;entryDx=0;entryDy=0;" parent="1" target="49Ez8LQvkiXUo5bIbuk2-7" edge="1">
          <mxGeometry width="50" height="50" relative="1" as="geometry">
            <mxPoint x="180" y="137.5" as="sourcePoint" />
            <mxPoint x="140" y="127.5" as="targetPoint" />
          </mxGeometry>
        </mxCell>
        <mxCell id="49Ez8LQvkiXUo5bIbuk2-66" value="from ADC" style="text;html=1;align=center;verticalAlign=middle;resizable=0;points=[];autosize=1;strokeColor=none;fillColor=none;" parent="1" vertex="1">
          <mxGeometry x="255" y="460" width="80" height="30" as="geometry" />
        </mxCell>
        <mxCell id="49Ez8LQvkiXUo5bIbuk2-67" value="to DAC" style="text;html=1;align=center;verticalAlign=middle;resizable=0;points=[];autosize=1;strokeColor=none;fillColor=none;" parent="1" vertex="1">
          <mxGeometry x="960" y="68" width="60" height="30" as="geometry" />
        </mxCell>
        <mxCell id="49Ez8LQvkiXUo5bIbuk2-92" value="COS&lt;br&gt;LP&lt;br&gt;filter" style="rounded=0;whiteSpace=wrap;html=1;strokeWidth=2;" parent="1" vertex="1">
          <mxGeometry x="590" y="359.5" width="40" height="80" as="geometry" />
        </mxCell>
        <mxCell id="49Ez8LQvkiXUo5bIbuk2-93" value="SIN&lt;br&gt;LP&lt;br&gt;filter" style="rounded=0;whiteSpace=wrap;html=1;strokeWidth=2;" parent="1" vertex="1">
          <mxGeometry x="590" y="200" width="40" height="80" as="geometry" />
        </mxCell>
        <mxCell id="49Ez8LQvkiXUo5bIbuk2-95" value="" style="shape=flexArrow;endArrow=classic;html=1;rounded=0;exitX=1;exitY=0.5;exitDx=0;exitDy=0;" parent="1" source="49Ez8LQvkiXUo5bIbuk2-93" edge="1">
          <mxGeometry width="50" height="50" relative="1" as="geometry">
            <mxPoint x="630" y="245.5" as="sourcePoint" />
            <mxPoint x="700" y="240" as="targetPoint" />
          </mxGeometry>
        </mxCell>
        <mxCell id="49Ez8LQvkiXUo5bIbuk2-96" value="" style="shape=flexArrow;endArrow=classic;html=1;rounded=0;exitX=1;exitY=0.5;exitDx=0;exitDy=0;" parent="1" edge="1">
          <mxGeometry width="50" height="50" relative="1" as="geometry">
            <mxPoint x="630" y="399.06999999999994" as="sourcePoint" />
            <mxPoint x="700" y="400" as="targetPoint" />
          </mxGeometry>
        </mxCell>
        <mxCell id="49Ez8LQvkiXUo5bIbuk2-98" value="DC part of&lt;br&gt;ADC*SIN" style="text;html=1;align=center;verticalAlign=middle;resizable=0;points=[];autosize=1;strokeColor=none;fillColor=none;" parent="1" vertex="1">
          <mxGeometry x="625" y="190" width="80" height="40" as="geometry" />
        </mxCell>
        <mxCell id="49Ez8LQvkiXUo5bIbuk2-99" value="DC part of&lt;br&gt;ADC*COS" style="text;html=1;align=center;verticalAlign=middle;resizable=0;points=[];autosize=1;strokeColor=none;fillColor=none;" parent="1" vertex="1">
          <mxGeometry x="625" y="335.5" width="80" height="40" as="geometry" />
        </mxCell>
        <mxCell id="49Ez8LQvkiXUo5bIbuk2-101" value="&lt;font style=&quot;font-size: 16px;&quot;&gt;&lt;b&gt;FPGA based current sensing Theremin sensor - PHASE LOCKED LOOP&lt;/b&gt;&lt;/font&gt;" style="text;html=1;align=center;verticalAlign=middle;resizable=0;points=[];autosize=1;strokeColor=none;fillColor=none;" parent="1" vertex="1">
          <mxGeometry x="430" y="26.5" width="570" height="30" as="geometry" />
        </mxCell>
        <mxCell id="49Ez8LQvkiXUo5bIbuk2-102" value="LP &lt;br&gt;filter" style="rounded=0;whiteSpace=wrap;html=1;strokeWidth=2;" parent="1" vertex="1">
          <mxGeometry x="250" y="569" width="40" height="60" as="geometry" />
        </mxCell>
        <mxCell id="49Ez8LQvkiXUo5bIbuk2-103" value="" style="endArrow=classic;html=1;rounded=0;entryX=0;entryY=0.5;entryDx=0;entryDy=0;exitX=1;exitY=0.5;exitDx=0;exitDy=0;" parent="1" source="49Ez8LQvkiXUo5bIbuk2-2" target="49Ez8LQvkiXUo5bIbuk2-102" edge="1">
          <mxGeometry width="50" height="50" relative="1" as="geometry">
            <mxPoint x="150" y="90" as="sourcePoint" />
            <mxPoint x="217" y="90" as="targetPoint" />
          </mxGeometry>
        </mxCell>
        <mxCell id="49Ez8LQvkiXUo5bIbuk2-104" value="" style="shape=flexArrow;endArrow=classic;html=1;rounded=0;exitX=1;exitY=0.5;exitDx=0;exitDy=0;" parent="1" edge="1">
          <mxGeometry width="50" height="50" relative="1" as="geometry">
            <mxPoint x="10" y="79.5" as="sourcePoint" />
            <mxPoint x="100" y="79.5" as="targetPoint" />
          </mxGeometry>
        </mxCell>
        <mxCell id="49Ez8LQvkiXUo5bIbuk2-105" value="target&lt;br&gt;phase&lt;br&gt;icrement" style="text;html=1;align=center;verticalAlign=middle;resizable=0;points=[];autosize=1;strokeColor=none;fillColor=none;" parent="1" vertex="1">
          <mxGeometry x="50" y="110" width="70" height="60" as="geometry" />
        </mxCell>
        <mxCell id="49Ez8LQvkiXUo5bIbuk2-106" value="current&lt;br&gt;phase&lt;br&gt;increment&lt;br&gt;as seen&lt;br&gt;by LC tank" style="text;html=1;align=center;verticalAlign=middle;resizable=0;points=[];autosize=1;strokeColor=none;fillColor=none;" parent="1" vertex="1">
          <mxGeometry x="300" y="600" width="80" height="90" as="geometry" />
        </mxCell>
        <mxCell id="49Ez8LQvkiXUo5bIbuk2-107" value="CURRENT_PHASE_INC" style="text;html=1;align=center;verticalAlign=middle;resizable=0;points=[];autosize=1;strokeColor=none;fillColor=none;" parent="1" vertex="1">
          <mxGeometry x="170" y="190" width="160" height="30" as="geometry" />
        </mxCell>
        <mxCell id="97ZNiib0oYw3oGOegRlO-1" value="ADC*SIN" style="text;html=1;align=center;verticalAlign=middle;resizable=0;points=[];autosize=1;strokeColor=none;fillColor=none;" vertex="1" parent="1">
          <mxGeometry x="515" y="215" width="70" height="30" as="geometry" />
        </mxCell>
        <mxCell id="97ZNiib0oYw3oGOegRlO-2" value="ADC*COS" style="text;html=1;align=center;verticalAlign=middle;resizable=0;points=[];autosize=1;strokeColor=none;fillColor=none;" vertex="1" parent="1">
          <mxGeometry x="510" y="374" width="80" height="30" as="geometry" />
        </mxCell>
        <mxCell id="97ZNiib0oYw3oGOegRlO-3" value="ATAN2" style="rounded=0;whiteSpace=wrap;html=1;strokeWidth=2;" vertex="1" parent="1">
          <mxGeometry x="700" y="210" width="40" height="220" as="geometry" />
        </mxCell>
        <mxCell id="97ZNiib0oYw3oGOegRlO-5" value="ADC phase&lt;br&gt;shift &lt;br&gt;relative to NCO" style="text;html=1;align=center;verticalAlign=middle;resizable=0;points=[];autosize=1;strokeColor=none;fillColor=none;" vertex="1" parent="1">
          <mxGeometry x="750" y="325.5" width="110" height="60" as="geometry" />
        </mxCell>
        <mxCell id="97ZNiib0oYw3oGOegRlO-6" value="" style="shape=lineEllipse;perimeter=ellipsePerimeter;whiteSpace=wrap;html=1;backgroundOutline=1;strokeWidth=2;" vertex="1" parent="1">
          <mxGeometry x="775" y="416" width="50" height="49" as="geometry" />
        </mxCell>
        <mxCell id="97ZNiib0oYw3oGOegRlO-7" value="zero phase&lt;br&gt;value" style="rounded=0;whiteSpace=wrap;html=1;strokeWidth=2;" vertex="1" parent="1">
          <mxGeometry x="700" y="460" width="40" height="80" as="geometry" />
        </mxCell>
        <mxCell id="97ZNiib0oYw3oGOegRlO-8" value="" style="endArrow=classic;html=1;rounded=0;exitX=1;exitY=0.5;exitDx=0;exitDy=0;entryX=0;entryY=0;entryDx=0;entryDy=0;" edge="1" parent="1" source="97ZNiib0oYw3oGOegRlO-3" target="97ZNiib0oYw3oGOegRlO-6">
          <mxGeometry width="50" height="50" relative="1" as="geometry">
            <mxPoint x="870" y="470" as="sourcePoint" />
            <mxPoint x="920" y="420" as="targetPoint" />
          </mxGeometry>
        </mxCell>
        <mxCell id="97ZNiib0oYw3oGOegRlO-9" value="" style="endArrow=classic;html=1;rounded=0;exitX=1;exitY=0.5;exitDx=0;exitDy=0;entryX=0;entryY=1;entryDx=0;entryDy=0;" edge="1" parent="1" source="97ZNiib0oYw3oGOegRlO-7" target="97ZNiib0oYw3oGOegRlO-6">
          <mxGeometry width="50" height="50" relative="1" as="geometry">
            <mxPoint x="870" y="470" as="sourcePoint" />
            <mxPoint x="920" y="420" as="targetPoint" />
          </mxGeometry>
        </mxCell>
        <mxCell id="97ZNiib0oYw3oGOegRlO-10" value="frequency&lt;br&gt;correction" style="rounded=0;whiteSpace=wrap;html=1;strokeWidth=2;shadow=1;" vertex="1" parent="1">
          <mxGeometry x="900" y="460" width="55" height="200" as="geometry" />
        </mxCell>
        <mxCell id="97ZNiib0oYw3oGOegRlO-11" value="" style="endArrow=classic;html=1;rounded=0;exitX=1;exitY=0.5;exitDx=0;exitDy=0;" edge="1" parent="1" source="49Ez8LQvkiXUo5bIbuk2-102">
          <mxGeometry width="50" height="50" relative="1" as="geometry">
            <mxPoint x="520" y="450" as="sourcePoint" />
            <mxPoint x="900" y="590" as="targetPoint" />
          </mxGeometry>
        </mxCell>
        <mxCell id="97ZNiib0oYw3oGOegRlO-12" value="" style="endArrow=classic;html=1;rounded=0;entryX=0;entryY=0.25;entryDx=0;entryDy=0;" edge="1" parent="1" target="97ZNiib0oYw3oGOegRlO-10">
          <mxGeometry width="50" height="50" relative="1" as="geometry">
            <mxPoint x="825" y="439" as="sourcePoint" />
            <mxPoint x="875" y="389" as="targetPoint" />
          </mxGeometry>
        </mxCell>
        <mxCell id="97ZNiib0oYw3oGOegRlO-13" value="" style="shape=flexArrow;endArrow=classic;html=1;rounded=0;" edge="1" parent="1">
          <mxGeometry width="50" height="50" relative="1" as="geometry">
            <mxPoint x="955" y="540" as="sourcePoint" />
            <mxPoint x="1085" y="540" as="targetPoint" />
          </mxGeometry>
        </mxCell>
        <mxCell id="97ZNiib0oYw3oGOegRlO-14" value="Phase increment &lt;br&gt;corresponding to zero&lt;br&gt;phase offset&amp;nbsp;&amp;nbsp;" style="text;html=1;align=center;verticalAlign=middle;resizable=0;points=[];autosize=1;strokeColor=none;fillColor=none;" vertex="1" parent="1">
          <mxGeometry x="945" y="482" width="140" height="60" as="geometry" />
        </mxCell>
        <mxCell id="97ZNiib0oYw3oGOegRlO-15" value="" style="shape=flexArrow;endArrow=classic;html=1;rounded=0;" edge="1" parent="1">
          <mxGeometry width="50" height="50" relative="1" as="geometry">
            <mxPoint x="1006" y="550" as="sourcePoint" />
            <mxPoint x="1006" y="710" as="targetPoint" />
          </mxGeometry>
        </mxCell>
        <mxCell id="97ZNiib0oYw3oGOegRlO-16" value="filter parameters&amp;nbsp;&lt;br&gt;similar to LC tank" style="text;html=1;align=center;verticalAlign=middle;resizable=0;points=[];autosize=1;strokeColor=none;fillColor=none;" vertex="1" parent="1">
          <mxGeometry x="130" y="569" width="120" height="40" as="geometry" />
        </mxCell>
        <mxCell id="97ZNiib0oYw3oGOegRlO-17" value="" style="shape=flexArrow;endArrow=classic;html=1;rounded=0;" edge="1" parent="1">
          <mxGeometry width="50" height="50" relative="1" as="geometry">
            <mxPoint x="1010" y="720" as="sourcePoint" />
            <mxPoint x="40" y="720" as="targetPoint" />
          </mxGeometry>
        </mxCell>
        <mxCell id="97ZNiib0oYw3oGOegRlO-18" value="" style="shape=flexArrow;endArrow=classic;html=1;rounded=0;" edge="1" parent="1">
          <mxGeometry width="50" height="50" relative="1" as="geometry">
            <mxPoint x="30" y="710" as="sourcePoint" />
            <mxPoint x="40" y="90" as="targetPoint" />
          </mxGeometry>
        </mxCell>
        <mxCell id="97ZNiib0oYw3oGOegRlO-19" value="sin(2*f)+DC" style="text;html=1;align=center;verticalAlign=middle;resizable=0;points=[];autosize=1;strokeColor=none;fillColor=none;" vertex="1" parent="1">
          <mxGeometry x="505" y="258" width="90" height="30" as="geometry" />
        </mxCell>
        <mxCell id="97ZNiib0oYw3oGOegRlO-20" value="sin(2*f)+DC" style="text;html=1;align=center;verticalAlign=middle;resizable=0;points=[];autosize=1;strokeColor=none;fillColor=none;" vertex="1" parent="1">
          <mxGeometry x="500" y="414" width="90" height="30" as="geometry" />
        </mxCell>
        <mxCell id="97ZNiib0oYw3oGOegRlO-21" value="A*sin(f)&lt;br&gt;with&lt;br&gt;phase&lt;br&gt;shift" style="text;html=1;align=center;verticalAlign=middle;resizable=0;points=[];autosize=1;strokeColor=none;fillColor=none;" vertex="1" parent="1">
          <mxGeometry x="405" y="482" width="60" height="70" as="geometry" />
        </mxCell>
        <mxCell id="97ZNiib0oYw3oGOegRlO-23" value="ADC phase&lt;br&gt;shift &lt;br&gt;relative to &lt;br&gt;zero phase" style="text;html=1;align=center;verticalAlign=middle;resizable=0;points=[];autosize=1;strokeColor=none;fillColor=none;" vertex="1" parent="1">
          <mxGeometry x="780" y="465" width="80" height="70" as="geometry" />
        </mxCell>
        <mxCell id="97ZNiib0oYw3oGOegRlO-25" value="" style="shape=flexArrow;endArrow=classic;html=1;rounded=0;entryX=0;entryY=0.5;entryDx=0;entryDy=0;" edge="1" parent="1">
          <mxGeometry width="50" height="50" relative="1" as="geometry">
            <mxPoint x="600" y="499.41" as="sourcePoint" />
            <mxPoint x="700" y="500.41" as="targetPoint" />
          </mxGeometry>
        </mxCell>
        <mxCell id="97ZNiib0oYw3oGOegRlO-26" value="calibration&lt;br&gt;setting" style="text;html=1;align=center;verticalAlign=middle;resizable=0;points=[];autosize=1;strokeColor=none;fillColor=none;" vertex="1" parent="1">
          <mxGeometry x="585" y="455" width="80" height="40" as="geometry" />
        </mxCell>
        <mxCell id="97ZNiib0oYw3oGOegRlO-27" value="&lt;b&gt;&lt;font style=&quot;font-size: 14px;&quot;&gt;NCO&lt;/font&gt;&lt;/b&gt;" style="text;html=1;align=center;verticalAlign=middle;resizable=0;points=[];autosize=1;strokeColor=none;fillColor=none;" vertex="1" parent="1">
          <mxGeometry x="225" y="369" width="50" height="30" as="geometry" />
        </mxCell>
        <mxCell id="97ZNiib0oYw3oGOegRlO-29" value="&lt;b&gt;&lt;font style=&quot;font-size: 14px;&quot;&gt;Phase detector&lt;/font&gt;&lt;/b&gt;" style="text;html=1;align=center;verticalAlign=middle;resizable=0;points=[];autosize=1;strokeColor=none;fillColor=none;" vertex="1" parent="1">
          <mxGeometry x="596" y="138.5" width="120" height="30" as="geometry" />
        </mxCell>
        <mxCell id="97ZNiib0oYw3oGOegRlO-30" value="sin(f)" style="text;html=1;align=center;verticalAlign=middle;resizable=0;points=[];autosize=1;strokeColor=none;fillColor=none;" vertex="1" parent="1">
          <mxGeometry x="410" y="180" width="50" height="30" as="geometry" />
        </mxCell>
        <mxCell id="97ZNiib0oYw3oGOegRlO-31" value="cos(f)" style="text;html=1;align=center;verticalAlign=middle;resizable=0;points=[];autosize=1;strokeColor=none;fillColor=none;" vertex="1" parent="1">
          <mxGeometry x="415" y="310" width="50" height="30" as="geometry" />
        </mxCell>
        <mxCell id="97ZNiib0oYw3oGOegRlO-33" value="&lt;b&gt;&lt;font style=&quot;font-size: 14px;&quot;&gt;Frequency&lt;br&gt;&amp;nbsp;corrector&lt;/font&gt;&lt;/b&gt;" style="text;html=1;align=center;verticalAlign=middle;resizable=0;points=[];autosize=1;strokeColor=none;fillColor=none;" vertex="1" parent="1">
          <mxGeometry x="880" y="404" width="90" height="50" as="geometry" />
        </mxCell>
        <mxCell id="97ZNiib0oYw3oGOegRlO-34" value="" style="shape=flexArrow;endArrow=classic;html=1;rounded=0;entryX=0;entryY=0.899;entryDx=0;entryDy=0;entryPerimeter=0;" edge="1" parent="1" target="97ZNiib0oYw3oGOegRlO-10">
          <mxGeometry width="50" height="50" relative="1" as="geometry">
            <mxPoint x="790" y="638.82" as="sourcePoint" />
            <mxPoint x="890" y="639.82" as="targetPoint" />
          </mxGeometry>
        </mxCell>
        <mxCell id="97ZNiib0oYw3oGOegRlO-35" value="calibration&lt;br&gt;setting" style="text;html=1;align=center;verticalAlign=middle;resizable=0;points=[];autosize=1;strokeColor=none;fillColor=none;" vertex="1" parent="1">
          <mxGeometry x="790" y="600" width="80" height="40" as="geometry" />
        </mxCell>
      </root>
    </mxGraphModel>
  </diagram>
</mxfile>
